<?xml version="1.0" encoding="utf-8"?>
<!-- Generator: Adobe Illustrator 22.1.0, SVG Export Plug-In . SVG Version: 6.00 Build 0)  -->
<svg version="1.1" id="Layer_1" xmlns="http://www.w3.org/2000/svg" xmlns:xlink="http://www.w3.org/1999/xlink" x="0px" y="0px"
	 viewBox="0 0 71.5 71.5" style="enable-background:new 0 0 71.5 71.5;" xml:space="preserve">
<style type="text/css">
	.st0{fill:#0B6D90;}
	.st1{fill:#E8FAFF;}
	.st2{fill:#B2EDFF;}
	.st3{fill:#00C3FF;}
	.st4{fill:#00AAF0;}
	.st5{fill:#D1F4FF;}
	.st6{fill:#FFFFFF;}
	.st7{fill:#59D8FF;}
</style>
<circle class="st0" cx="35.8" cy="35.8" r="35.8"/>
<path class="st1" d="M28.1,10.4c-8.8,1.1-21,11.6-21,22L38.8,16C38.8,16,37.8,9.2,28.1,10.4z"/>
<path class="st2" d="M62.1,49.6c0-0.8-0.6-1.6-1.4-1.7C46.4,45.5,25.5,34.8,30,24.8c1.7-3.7,6.4-4.2,6.4-4.2v-3.9H24.6L8.8,27.9
	v16.9l29.8,10.3l23.6,0L62.1,49.6z"/>
<path class="st3" d="M52.8,48.1c-11.6-3.7-24.8-11.4-26.4-19.3c-0.7-3.4,0.9-8.7,7-12.2h-8.7L8.8,27.9v14.5l15.9-5.2
	c1.6,2.1,3.6,4,6.2,5.8c0.2,0.1,0.3,0.2,0.5,0.2c0.3,0,0.5-0.1,0.7-0.4c0.3-0.4,0.2-0.9-0.2-1.2C28.1,39,25.5,36,24,32.8
	c-0.2-0.4,0-0.9,0.4-1.2l0,0c0.4-0.2,1,0,1.2,0.4c4.1,8.5,18.2,15.1,26.6,17.8c0.1,0,0.2,0,0.3,0c0.4,0,0.7-0.2,0.8-0.6
	C53.5,48.8,53.2,48.3,52.8,48.1z"/>
<path class="st4" d="M8.8,27.9v14.5l11.7-3.8c-0.4-0.9-0.8-1.8-1.1-2.7c-5.2-14,8.7-19.2,8.7-19.2h-3.5L8.8,27.9z"/>
<path class="st5" d="M12.5,26.4c0,0,7.1-12.3,20.2-12.3c2.9,0,5.9,1.3,6.9,2.1c4.6,3.4-0.5,8.8-2.9,5.1c-2.8-4.2-7.9-5.1-12.8-3.2
	c-5.7,2.3-8.8,7.9-8.8,7.9L12.5,26.4"/>
<path class="st6" d="M11.1,37.9c-4.3-3.3-2.5-12.2,5.6-9.9c4.3,1.2,6-2.3,3.5-3.9c-1.3-0.8-4.2-0.8-7.4,0.2
	c-3.4,1.1-5.6,4.2-5.6,7.8v11.7c0,3.4,2.7,6.1,6.1,6.1l0,0L11.1,37.9z"/>
<path class="st5" d="M13.2,49.9l-2.1-12c-3.6-2.8-2.9-9.4,2-10.2l0,0c-2.1,0.2-6,1.4-6,8.2l0,0C7.1,45.1,13.2,49.9,13.2,49.9z"/>
<path class="st3" d="M21.8,39.5c0,0,10.5,14.5,39.5,14.8c0.5,0,0.9,0.4,0.9,0.9l0,0c0,0.5-0.4,0.9-0.9,0.9H25.9
	c-3.9,0-9.3-1.7-12.7-6.1c-2.8-3.7-1.7-10.5-1.7-10.5L21.8,39.5z"/>
<path class="st4" d="M61.3,54.2c-4.7,0-15.2,0-26.2,0c-7.1,0-12.2-2.4-15.4-5.6c-1.2-1.2-0.3-3.2,1.4-3.2l0,0c1.6,0,3.2-1.1,3.9-2.7
	c-2.2-1.9-3.1-3.2-3.1-3.2l-10.3-0.1c0,0-1.1,6.8,1.7,10.5c3.3,4.4,8.7,6.1,12.7,6.1h35.3c0.5,0,0.9-0.4,0.9-0.9
	C62.1,54.6,61.7,54.2,61.3,54.2z"/>
<path class="st1" d="M9.8,40.2c-1.2,5.2,3.4,9.7,3.4,9.7s-2.5-4.3-0.6-7.5c1.3-2.1,3.8-2.5,6.7,0.5c2.2,2.3,5.2-1,3.8-3.4
	c1.3,0.2,2.6-0.2,2.7-1.4C26.5,33.8,12.1,30.9,9.8,40.2z"/>
<path class="st5" d="M12.6,42.4c1.3-2.1,3.8-2.5,6.7,0.5c2.2,2.3,5.2-1,3.8-3.4c-2.6-3.5-9.1-3.9-11.4-0.1c-2.3,4-0.3,8.1,1.4,10.5
	C13.2,49.9,10.7,45.5,12.6,42.4z"/>
<g>
	<path class="st7" d="M57.5,51.2c-0.1,0-0.1,0-0.2,0c-0.5-0.1-1-0.2-1.5-0.4c-0.5-0.1-0.8-0.6-0.6-1.1c0.1-0.5,0.6-0.8,1.1-0.6
		c0.5,0.1,1,0.2,1.5,0.3c0.5,0.1,0.8,0.6,0.7,1C58.3,50.9,57.9,51.2,57.5,51.2z"/>
	<path class="st7" d="M35.2,45.5c-0.1,0-0.3,0-0.4-0.1c-0.4-0.2-0.8-0.4-1.2-0.6c-0.4-0.2-0.6-0.8-0.3-1.2c0.2-0.4,0.8-0.6,1.2-0.3
		c0.4,0.2,0.7,0.4,1.1,0.6c0.4,0.2,0.6,0.8,0.4,1.2C35.9,45.4,35.6,45.5,35.2,45.5z"/>
</g>
</svg>
